<?xml version="1.0" encoding="utf-8"?>
<!-- Generator: Adobe Illustrator 28.1.0, SVG Export Plug-In . SVG Version: 6.00 Build 0)  -->
<svg version="1.1" id="Layer_1" xmlns="http://www.w3.org/2000/svg" xmlns:xlink="http://www.w3.org/1999/xlink" x="0px" y="0px"
	 viewBox="0 0 512 512" style="enable-background:new 0 0 512 512;" xml:space="preserve">
<g>
	<g>
		<path d="M633.4934,92.7863c3.2172,0,3.2226-5,0-5C630.2761,87.7863,630.2708,92.7863,633.4934,92.7863L633.4934,92.7863z"/>
	</g>
</g>
<g>
	<g>
		<path d="M270.9737,168.636c-3.7052-10.2971-8.2762-20.383-14.6158-29.3392c-6.2138-8.7785-13.0572-17.1613-21.2067-24.2138
			c-8.3865-7.2576-17.4809-13.9628-27.3802-19.0234c-10.5349-5.3856-21.7891-9.8602-33.3024-12.6754
			c-11.8247-2.8913-24.1645-4.498-36.3297-4.8456c-11.8441-0.3383-24.0773,0.6207-35.5982,3.3783
			c-13.3899,3.205-25.5812,9.9501-35.6697,19.2586c-4.7447,4.3779-8.7663,9.7288-12.372,15.0335
			c-3.6849,5.4213-6.0803,11.3668-8.5955,17.4066c-4.2928,10.3085-6.0162,21.6665-6.4955,32.7679
			c-0.2298,5.3234,0.0424,10.6612,0.6816,15.9487c0.9109,7.5352,1.9457,15.0259,3.6647,22.4195
			c4.9151,21.141,13.2933,41.6682,22.6494,61.1872c17.5677,36.6505,41.8283,69.6909,67.6714,100.8851
			c26.5401,32.0355,55.4998,61.9413,83.0087,93.1261c3.4003,3.8546,6.777,7.7298,10.1267,11.6284
			c2.7173,2.9255,5.9356,4.9932,9.6548,6.2031c3.5752,1.8783,7.428,2.7396,11.5584,2.5837
			c8.0962-0.3626,15.2381-3.1665,21.2132-8.7868c29.5338-27.78,59.0519-55.6448,86.5665-85.454
			c13.6825-14.8235,26.8491-30.1283,39.2039-46.0791c13.6161-17.5793,26.6107-35.5478,38.0245-54.6516
			c5.1573-8.6321,10.0124-17.4456,14.5178-26.4356c5.82-11.6131,11.3044-23.5834,15.1971-35.9913
			c1.5953-5.0849,2.8359-10.2678,3.6266-15.5394c1.1381-7.5877,2.2437-15.2294,1.7977-22.9205
			c-0.7949-13.7079-4.1139-26.1957-10.4319-38.3945c-2.9906-5.7742-7.1296-11.0982-11.3724-15.9594
			c-4.2306-4.8473-9.5509-8.944-14.9242-12.3971c-1.5847-1.0184-3.2444-1.9206-4.9638-2.6905
			c-4.4416-1.9888-8.9752-4.0823-13.7298-5.2664c-7.4363-1.852-15.2796-2.6119-22.9434-2.7732
			c-9.9241-0.2089-19.9354,0.0588-29.8309,0.8382c-12.0201,0.9467-24.2874,2.4436-35.9042,5.8124
			c-6.8386,1.9831-13.487,4.7681-19.9259,7.7682c-4.3116,2.0089-8.4405,4.4116-12.2799,7.2219
			c-5.4623,3.9982-10.8697,8.1514-15.5887,13.0251c-4.6908,4.8445-8.7903,10.2914-12.7947,15.6925
			c-10.7217,14.4613-17.993,31.0707-27.1014,46.52c-2.1825,3.7019-4.475,7.3367-6.9274,10.866
			c-2.1923,3.4435-3.379,7.1615-3.5601,11.154c-0.893,3.9876-0.7144,7.9752,0.5358,11.9628
			c0.9282,3.904,2.7181,7.3047,5.3697,10.2022c2.1153,3.2659,4.921,5.8415,8.4171,7.7267
			c6.9624,3.6785,15.3969,5.5225,23.1168,3.0242c2.3888-1.0081,4.7776-2.0162,7.1664-3.0242
			c4.508-2.667,8.0955-6.2546,10.7625-10.7625c13.1317-18.8982,21.2953-40.8415,35.3535-59.1369
			c-1.5637,2.0239-3.1273,4.0478-4.6909,6.0716c4.382-5.6428,9.3084-10.8172,14.9611-15.2021
			c-2.0239,1.5636-4.0477,3.1273-6.0716,4.6909c5.0237-3.8338,10.5065-6.9452,16.316-9.4224
			c-2.3888,1.0081-4.7776,2.0162-7.1664,3.0242c9.0408-3.779,18.6116-5.967,28.3006-7.2743
			c-2.6584,0.3572-5.3168,0.7144-7.9752,1.0716c7.8607-1.03,15.7778-1.5047,23.6996-1.7175
			c8.3728-0.2249,16.8825-0.5456,25.2093,0.5204c-2.6584-0.3572-5.3168-0.7144-7.9752-1.0716
			c3.8391,0.535,7.5917,1.4195,11.1888,2.8805c-2.3888-1.0081-4.7776-2.0162-7.1664-3.0243
			c3.1671,1.3388,6.107,3.0736,8.8318,5.1692c-2.0239-1.5636-4.0478-3.1273-6.0716-4.6909
			c2.8315,2.2353,5.3453,4.7964,7.5778,7.6281c-1.5636-2.0239-3.1273-4.0477-4.6909-6.0716
			c2.7761,3.601,5.0347,7.5331,6.8315,11.7073c-1.0081-2.3888-2.0162-4.7776-3.0243-7.1664
			c2.0514,4.8911,3.4337,10.0058,4.1483,15.2607c-0.3572-2.6584-0.7144-5.3168-1.0716-7.9752
			c0.779,6.1423,0.5833,12.3437-0.2368,18.4715c0.3572-2.6584,0.7144-5.3168,1.0716-7.9752
			c-1.4441,10.1786-4.653,19.9637-8.62,29.4189c1.0081-2.3888,2.0161-4.7776,3.0242-7.1664
			c-10.6987,25.245-25.1729,49.0766-40.9454,71.4447c-4.4604,6.3256-9.0683,12.5456-13.7943,18.6751
			c1.5636-2.0239,3.1273-4.0477,4.6909-6.0716c-14.5302,18.8026-30.1929,36.7009-46.4982,53.9789
			c-16.326,17.2999-33.2873,33.9875-50.4717,50.4306c-9.6776,9.2602-19.4283,18.4436-29.1847,27.6207c14.1421,0,28.2843,0,42.4264,0
			c-27.8677-32.4337-57.7414-63.0817-85.4722-95.6357c-7.6077-8.931-15.0463-18.0063-22.2269-27.2848
			c1.5636,2.0239,3.1273,4.0478,4.6909,6.0716c-16.7965-21.7512-32.2083-44.6648-44.7158-69.1692
			c-3.5005-6.8582-6.7612-13.8359-9.767-20.9249c1.0081,2.3888,2.0162,4.7776,3.0243,7.1664
			c-7.2201-17.1293-13.4617-35.1535-15.9766-53.6352c0.3572,2.6584,0.7144,5.3168,1.0716,7.9752
			c-1.0784-8.2896-1.2856-16.6493-0.1727-24.9471c-0.3572,2.6584-0.7144,5.3168-1.0716,7.9752
			c0.8447-5.9124,2.4181-11.6733,4.7393-17.1776c-1.0081,2.3888-2.0162,4.7776-3.0242,7.1664
			c1.9869-4.5992,4.471-8.9385,7.5151-12.9211c-1.5636,2.0239-3.1273,4.0478-4.6909,6.0716
			c2.6008-3.3313,5.5485-6.3338,8.8795-8.9381c-2.0239,1.5636-4.0478,3.1273-6.0716,4.6909
			c3.1492-2.4022,6.5509-4.3608,10.187-5.9299c-2.3888,1.0081-4.7776,2.0162-7.1664,3.0242
			c5.3462-2.2276,10.9632-3.56,16.6899-4.353c-2.6584,0.3572-5.3168,0.7144-7.9752,1.0716
			c11.3533-1.4881,22.9804-1.242,34.3213,0.2299c-2.6584-0.3572-5.3168-0.7144-7.9752-1.0716
			c11.1847,1.5061,22.1381,4.3643,32.5547,8.7234c-2.3888-1.0081-4.7776-2.0162-7.1664-3.0242
			c8.7493,3.7186,16.9911,8.4624,24.5251,14.2648c-2.0239-1.5636-4.0478-3.1273-6.0716-4.6909
			c6.936,5.4017,13.1859,11.6096,18.5747,18.5583c-1.5636-2.0239-3.1273-4.0477-4.6909-6.0716
			c4.866,6.3501,8.9539,13.2384,12.1,20.597c-1.0081-2.3888-2.0162-4.7776-3.0242-7.1664c0.6638,1.5807,1.2858,3.1762,1.8662,4.7893
			c0.9282,3.904,2.7181,7.3047,5.3697,10.2022c2.1153,3.2659,4.921,5.8415,8.4171,7.7267c3.4435,2.1923,7.1615,3.379,11.154,3.5601
			c3.9876,0.893,7.9752,0.7144,11.9628-0.5358c7.2591-2.3492,14.2626-6.8476,17.9289-13.7868
			C271.556,184.9266,273.6876,176.1782,270.9737,168.636L270.9737,168.636z"/>
	</g>
</g>
<g>
	<g>
		<path d="M103.6935,184.7593c19.0659-1.8693,38.2416-3.5,57.4129-2.5928c5.3765,0.2544,10.7402,0.7185,16.0771,1.419
			c-2.6584-0.3572-5.3168-0.7144-7.9752-1.0716c12.0355,1.6189,23.8286,4.53,35.0429,9.2271
			c-2.3888-1.0081-4.7776-2.0162-7.1664-3.0242c8.6715,3.6689,16.9084,8.3203,24.3794,14.0625
			c-2.0239-1.5636-4.0477-3.1273-6.0716-4.6909c5.8726,4.5552,11.2081,9.7556,15.7812,15.6201
			c-1.5636-2.0239-3.1273-4.0477-4.6909-6.0716c3.0644,3.9732,6.0229,8.2854,8.073,12.8834
			c-1.0081-2.3888-2.0162-4.7776-3.0243-7.1664c0.5283,1.26,0.9129,2.5477,1.0961,3.9034
			c-0.3572-2.6584-0.7144-5.3168-1.0716-7.9752c0.0703,0.6991,0.0811,1.379,0.0043,2.0784
			c0.3572-2.6584,0.7144-5.3168,1.0716-7.9752c-0.0702,0.4315-0.1697,0.8361-0.3157,1.2482
			c1.0081-2.3888,2.0162-4.7776,3.0242-7.1664c-0.169,0.3904-0.3637,0.7334-0.6163,1.0758
			c1.5636-2.0239,3.1273-4.0478,4.6909-6.0716c-0.2165,0.2482-0.4283,0.4524-0.6831,0.6613
			c2.0239-1.5636,4.0478-3.1273,6.0716-4.6909c-0.3349,0.2309-0.6364,0.389-1.0109,0.5575
			c2.3888-1.0081,4.7776-2.0162,7.1664-3.0242c-0.4773,0.1549-0.9159,0.2534-1.4121,0.3281
			c2.6584-0.3572,5.3168-0.7144,7.9752-1.0716c-6.0282,0.5675-12.3519-0.0364-18.3335-0.8253
			c2.6584,0.3572,5.3168,0.7144,7.9752,1.0716c-9.7914-1.3346-19.3528-3.9718-28.457-7.8117
			c2.3888,1.0081,4.7776,2.0162,7.1664,3.0243c-8.6531-3.6927-16.811-8.442-24.2648-14.1848
			c2.0239,1.5636,4.0477,3.1273,6.0716,4.6909c-2.9654-2.3056-5.7558-4.7837-8.5107-7.3336
			c-3.0967-2.8663-6.3888-5.6993-10.0513-7.7956c-5.8195-3.3309-12.4915-5.3285-19.2378-5.2503
			c-3.3179,0.0385-6.9311,0.4243-10.1261,1.5691c-2.3888,1.0081-4.7776,2.0162-7.1664,3.0242
			c-0.2749,0.1183-0.5422,0.2516-0.802,0.4c-0.396,0.2227-0.7647,0.4855-1.135,0.7477c-3.4414,2.4362-6.6185,5.0209-9.6929,7.8502
			c-2.5912,2.3848-5.1474,4.81-7.9275,6.9773c2.0239-1.5636,4.0478-3.1273,6.0716-4.6909
			c-1.9842,1.5182-4.0659,2.8843-6.3661,3.8759c2.3888-1.0081,4.7776-2.0162,7.1664-3.0243
			c-1.3293,0.5406-2.6805,0.9301-4.1036,1.1258c2.6584-0.3572,5.3168-0.7144,7.9752-1.0716
			c-1.0388,0.1124-2.0589,0.1149-3.0979,0.0036c2.6584,0.3572,5.3168,0.7144,7.9752,1.0716
			c-1.2641-0.1761-2.4612-0.5132-3.6364-1.009c2.3888,1.0081,4.7776,2.0162,7.1664,3.0242
			c-1.8833-0.8628-3.5517-2.0471-5.187-3.3072c2.0239,1.5636,4.0477,3.1273,6.0716,4.6909
			c-3.2524-2.5313-6.4314-5.1692-9.8024-7.5411c-3.2572-2.2918-7.3499-3.8567-10.9753-5.0989
			c-6.9231-2.3722-16.4711-2.6694-23.4338-0.2229c-5.7815,2.0314-11.7557,4.811-15.7652,9.6768
			c-1.3982,1.6968-3.7923,4.4844-4.8934,6.3689c-1.4133,2.4191-2.7744,6.0753-3.449,7.956
			c-1.1918,3.3224-1.5514,6.9812-1.6014,10.4955c-0.1199,8.4292,2.9893,17.1666,7.7006,24.0825
			c9.5769,14.0583,20.8771,26.8127,32.112,39.5396c5.4467,6.1701,10.8439,12.3887,15.8879,18.8955
			c-1.5636-2.0239-3.1273-4.0478-4.6909-6.0716c7.6092,9.861,14.0381,20.3453,18.9092,31.8242
			c-1.0081-2.3888-2.0162-4.7776-3.0242-7.1664c9.417,22.3661,15.4557,46.4158,30.1856,66.1418
			c7.4573,9.9867,15.4301,19.2447,24.416,27.8701c7.2774,6.9854,14.8816,13.6174,22.3347,20.4122
			c8.3865,7.6458,16.5964,15.5211,23.8706,24.2506c2.7173,2.9255,5.9356,4.9932,9.6548,6.203
			c3.5752,1.8783,7.428,2.7396,11.5584,2.5838c2.6584-0.3572,5.3168-0.7144,7.9752-1.0717c3.904-0.9282,7.3047-2.718,10.2022-5.3697
			c2.254-1.3335,4.0478-3.1273,5.3813-5.3813c2.6516-2.8975,4.4415-6.2982,5.3697-10.2022
			c0.3572-2.6584,0.7144-5.3168,1.0717-7.9752c-0.0168-5.4153-1.3821-10.4624-4.0959-15.1416
			c-8.5962-18.6602-17.0766-37.3738-25.4372-56.1408s-16.6025-37.5869-24.7252-56.4581
			c-4.5992-10.6851-9.1593-21.3869-13.6824-32.1043c1.0081,2.3888,2.0162,4.7776,3.0242,7.1664
			c-2.2609-5.359-4.5129-10.7218-6.7549-16.0887c-2.7929-6.6856-5.2975-13.906-9.2449-20.0703
			c-5.3145-8.2993-11.8244-14.9723-20.3003-20.0662c-4.082-2.4532-8.7199-4.1635-13.0647-5.9747
			c-2.3365-0.974-4.7083-1.849-7.0905-2.7041c-2.6584,19.6428-5.3168,39.2856-7.9752,58.9284
			c4.5306-0.199,9.0553-0.002,13.5531,0.5748c-2.6584-0.3572-5.3168-0.7144-7.9752-1.0716
			c7.0684,0.9511,13.9605,2.8345,20.5336,5.6018c-2.3888-1.0081-4.7776-2.0162-7.1664-3.0243
			c6.0804,2.6042,11.8015,5.9351,17.045,9.969c-2.0239-1.5636-4.0477-3.1273-6.0716-4.6909
			c6.0668,4.7206,11.4038,10.26,16.1165,16.3233c-1.5636-2.0239-3.1273-4.0477-4.6909-6.0716
			c9.2245,11.9655,15.9418,25.5966,22.1849,39.2868c6.3391,13.9007,11.9983,28.3427,20.1467,41.3201
			c3.2931,5.2446,7.1143,10.1744,11.0168,14.9692c2.3514,2.8891,4.9225,5.6062,7.7493,8.0352
			c3.253,2.7952,6.6707,5.4384,10.1917,7.8864c1.5526,1.0795,3.1687,2.0673,4.8421,2.9484
			c0.7881,0.4149,1.5886,0.8036,2.3999,1.1707c2.632,1.1908,5.3665,2.4243,8.0896,3.3998c0.5525,0.1979,1.0965,0.3101,1.6722,0.41
			c1.7156,0.2977,6.5093,1.0965,8.2162,1.0824c0.2425-0.002,0.4784-0.0134,0.7211-0.0231c1.4856-0.0594,6.8172-0.756,8.2134-1.12
			c0.2017-0.0526,0.3963-0.1117,0.597-0.1678c2.2016-0.6148,5.5425-2.0053,7.9695-3.4681c0.9949-0.5997,5.3315-3.9831,6.2203-4.7974
			c0.1825-0.1672,0.3643-0.3278,0.5399-0.5027c0.8805-0.8771,2.8646-3.6764,2.5898-3.3206
			c0.3891-0.5036,1.8268-2.2307,2.5738-3.3396c0.218-0.3236,0.42-0.6543,0.5987-1.0014c1.2955-2.5146,2.3008-5.2676,3.3605-7.8845
			c0.197-0.4865,0.3837-0.9734,0.5542-1.4701c0.7257-2.1144,1.376-4.2571,1.9915-6.4059c1.2547-4.3804,2.3178-8.814,3.2513-13.2734
			c1.892-9.0382,3.2522-18.1757,4.6196-27.3045c2.5003-16.6916,5.0865-33.4816,10.8892-49.4066
			c0.6911-1.8966,1.4294-3.7749,2.2093-5.6367c-1.0081,2.3888-2.0161,4.7776-3.0242,7.1664
			c3.1229-7.3724,6.9944-14.4067,11.8628-20.7759c-1.5636,2.0239-3.1273,4.0477-4.6909,6.0716
			c6.2613-8.0929,14.2573-14.2007,21.9353-20.8496c1.9539-1.692,3.87-3.4298,5.6931-5.2628
			c3.4569-3.4756,6.3373-7.3514,9.3047-11.2653c1.46-1.9256,2.8064-3.9233,3.9564-6.0511c0.5526-1.0224,1.0514-2.0687,1.5185-3.1324
			c1.4625-3.3305,3.0338-6.699,4.1547-10.1775c0.3943-1.2238,0.714-2.4722,0.9476-3.7366
			c0.6861-3.7143,1.2685-7.5335,1.4752-11.3148c0.0734-1.3427,0.0266-2.6837-0.1185-4.02
			c-0.405-3.7309-0.7532-7.8075-1.7859-11.5234c-0.9282-3.904-2.7181-7.3047-5.3697-10.2022
			c-2.1153-3.2659-4.921-5.8415-8.4171-7.7267c-2.3888-1.0081-4.7776-2.0162-7.1664-3.0242
			c-3.9876-1.2502-7.9752-1.4288-11.9628-0.5358c-2.7076,0.0084-5.2312,0.6911-7.5708,2.0479
			c-3.7192,1.2099-6.9375,3.2776-9.6548,6.203c-1.5637,2.0239-3.1273,4.0477-4.6909,6.0716
			c-2.7138,4.6791-4.0791,9.7263-4.0959,15.1416c-0.0898,0.6954-0.181,1.3905-0.2737,2.0856
			c0.3572-2.6584,0.7144-5.3168,1.0716-7.9752c-3.6038,26.757-9.9668,53.1263-18.9842,78.5755
			c-2.576,7.2701-5.3712,14.4607-8.3682,21.5674c1.0081-2.3888,2.0161-4.7776,3.0242-7.1664
			c-2.8701,6.7803-5.9268,13.4788-9.1688,20.0893c18.6347,5.0472,37.2694,10.0944,55.9041,15.1416
			c-0.6656-9.6978-0.031-19.4026,1.2388-29.0256c-0.3572,2.6584-0.7144,5.3168-1.0717,7.9752
			c1.8806-13.9865,5.0318-27.7532,7.4345-41.651c1.4204-8.2159,2.7666-16.5361,3.0966-24.8791
			c0.1085-2.7427,0.0822-5.4936-0.1408-8.2302c-0.4222-5.1801-1.0163-10.4242-2.253-15.4822
			c-1.2589-5.1488-3.4464-10.1969-5.8523-14.8734c-0.6875-1.3363-1.4739-2.6224-2.3587-3.8374
			c-2.2964-3.1535-4.6473-6.4306-7.3934-9.2527c-2.0239-1.5636-4.0477-3.1273-6.0716-4.6909
			c-3.4435-2.1923-7.1615-3.379-11.154-3.5601c-2.6584-0.7144-5.3168-0.7144-7.9752,0c-3.9925,0.1811-7.7105,1.3678-11.154,3.5601
			c-5.2036,3.9274-10.2811,7.7632-14.6543,12.5939c-4.2809,4.7287-8.1403,9.8775-11.8285,15.0742
			c-4.7573,6.703-8.9159,13.8031-13.5162,20.6112c-5.0006,7.4006-10.6219,14.3528-15.7482,21.6636
			c-6.4969,9.2654-11.6661,19.2323-15.276,29.9987c-0.7895,2.3546-1.4392,4.7567-1.9162,7.1942
			c-0.9366,4.7873-1.6373,9.6794-1.9063,14.5511c-0.1344,2.4339-0.0556,4.8698,0.235,7.2897
			c0.5886,4.9027,1.0449,9.9113,2.554,14.6427c0.9282,3.904,2.7181,7.3047,5.3697,10.2022c2.1153,3.2659,4.921,5.8415,8.4171,7.7267
			c3.4435,2.1923,7.1615,3.379,11.154,3.5601c3.9876,0.893,7.9752,0.7144,11.9628-0.5358c2.3888-1.0081,4.7776-2.0161,7.1664-3.0242
			c4.508-2.6671,8.0955-6.2546,10.7625-10.7625c1.0081-2.3888,2.0162-4.7776,3.0243-7.1664c1.4288-5.3168,1.4288-10.6336,0-15.9503
			c-0.6458-2.0247-1.1139-4.0826-1.4189-6.1855c0.3572,2.6584,0.7144,5.3168,1.0716,7.9752
			c-0.4908-3.7249-0.446-7.4617,0.0197-11.1867c-0.3572,2.6584-0.7144,5.3168-1.0717,7.9752
			c0.6908-5.1024,2.1365-10.037,4.1027-14.7891c-1.0081,2.3888-2.0161,4.7776-3.0242,7.1664
			c4.0688-9.6349,10.2462-18.1361,16.469-26.4705c3.1643-4.2381,6.3569-8.458,9.3412-12.8263
			c2.6674-3.9046,5.175-7.9147,7.7224-11.8977c2.9159-4.5591,5.8909-9.0836,9.1937-13.3745
			c-1.5637,2.0239-3.1273,4.0477-4.6909,6.0716c3.5668-4.591,7.5181-8.8607,12.1058-12.4504
			c-2.0239,1.5636-4.0478,3.1273-6.0717,4.6909c0.2432-0.1886,0.488-0.375,0.7344-0.5593
			c-12.1183-1.5636-24.2365-3.1273-36.3548-4.6909c0.7809,0.8025,1.514,1.6398,2.206,2.52
			c-1.5636-2.0239-3.1273-4.0477-4.6909-6.0716c1.5822,2.0751,2.8654,4.3235,3.8908,6.7217
			c-1.0081-2.3888-2.0161-4.7776-3.0242-7.1664c1.3284,3.2168,2.1601,6.5828,2.6501,10.0238
			c-0.3572-2.6584-0.7144-5.3168-1.0716-7.9752c0.9222,6.894,0.5138,13.8753-0.3993,20.7473
			c0.3572-2.6584,0.7144-5.3168,1.0716-7.9752c-1.3688,10.0453-3.536,19.978-5.42,29.9345
			c-2.3906,12.634-4.4999,25.412-5.4107,38.2449c-0.4212,5.9349-0.4831,11.8887-0.0756,17.826
			c0.3572,2.6584,0.7144,5.3168,1.0716,7.9752c0.9282,3.904,2.7181,7.3047,5.3697,10.2022c1.3335,2.254,3.1273,4.0477,5.3813,5.3813
			c2.8975,2.6516,6.2982,4.4416,10.2022,5.3697c2.6584,0.3572,5.3168,0.7144,7.9752,1.0716
			c2.6584-0.3572,5.3168-0.7144,7.9752-1.0716c3.904-0.9282,7.3047-2.7181,10.2022-5.3697c3.2659-2.1153,5.8415-4.921,7.7267-8.4171
			c15.879-32.3776,28.1277-66.6216,35.2787-101.9925c2.3748-11.7466,4.0772-23.5836,5.612-35.4668
			c-19.6428,2.6584-39.2856,5.3168-58.9284,7.9752c0.2847,1.0243,0.502,2.0509,0.6575,3.1026
			c-0.3572-2.6584-0.7144-5.3168-1.0716-7.9752c0.285,2.2386,0.254,4.4597-0.0456,6.695c0.3572-2.6584,0.7144-5.3168,1.0716-7.9752
			c-0.4106,2.7171-1.1948,5.3278-2.2608,7.8579c1.0081-2.3888,2.0162-4.7776,3.0243-7.1664
			c-1.4344,3.2872-3.296,6.3384-5.475,9.1835c1.5637-2.0239,3.1273-4.0478,4.6909-6.0716
			c-7.1236,9.1153-17.0657,15.3891-25.2626,23.4276c-5.5126,5.406-10.3241,11.6741-14.6265,18.0556
			c-2.966,4.3993-5.5094,9.0753-7.6986,13.906c-5.5258,12.1933-9.8502,24.5696-12.6593,37.6513
			c-2.5252,11.7596-4.0822,23.6989-5.9212,35.5774c-1.0687,6.9027-2.2263,13.7953-3.7051,20.6235
			c-1.4157,6.537-2.8951,13.3783-5.4619,19.5757c1.0081-2.3888,2.0162-4.7776,3.0242-7.1664
			c-0.3231,0.721-0.6877,1.3905-1.1634,2.0233c1.5637-2.0239,3.1273-4.0478,4.6909-6.0716
			c-0.2492,0.2905-0.4938,0.5381-0.7841,0.7875c2.0239-1.5636,4.0477-3.1273,6.0716-4.6909
			c-0.3137,0.2247-0.6004,0.391-0.9518,0.5504c2.3888-1.0081,4.7776-2.0162,7.1664-3.0243
			c-0.2694,0.1057-0.5478,0.1778-0.8352,0.2161c2.6584-0.3572,5.3168-0.7144,7.9752-1.0716
			c-0.3202,0.0411-0.6409,0.0452-0.962,0.0123c2.6584,0.3572,5.3168,0.7144,7.9752,1.0716c-0.835-0.121-1.5915-0.3658-2.3693-0.6849
			c2.3888,1.0081,4.7776,2.0161,7.1664,3.0242c-3.3526-1.4919-6.4815-3.4074-9.3971-5.6312
			c2.0239,1.5637,4.0478,3.1273,6.0716,4.6909c-4.1668-3.2349-7.8011-7.0542-11.0429-11.2064
			c1.5637,2.0239,3.1273,4.0478,4.6909,6.0716c-7.0636-9.153-12.1142-19.6062-16.9104-30.0685
			c-4.8138-10.5006-9.3313-21.1411-14.4913-31.48c-2.498-5.0053-5.1467-9.9394-8.0556-14.7191
			c-4.1993-6.9002-9.0576-13.3354-14.1298-19.6184c-3.4917-4.3251-7.3322-8.3725-11.5508-11.9958
			c-6.3614-5.4638-13.1835-10.6911-20.6416-14.5946c-5.2965-2.7721-10.8706-5.0881-16.4749-7.1487
			c-3.1879-1.1721-6.4516-2.1388-9.7638-2.8914c-5.9131-1.3436-12.0051-2.1177-18.0283-2.6785
			c-3.5449-0.3301-7.1047-0.4059-10.661-0.2497c-4.1304-0.1558-7.9832,0.7054-11.5584,2.5838
			c-3.7192,1.2099-6.9375,3.2775-9.6548,6.203c-1.5636,2.0239-3.1273,4.0478-4.6909,6.0716
			c-2.1923,3.4435-3.379,7.1615-3.5601,11.154c-0.7144,2.6584-0.7144,5.3168,0,7.9752c0.1811,3.9925,1.3678,7.7105,3.5601,11.154
			c1.5636,2.0239,3.1273,4.0478,4.6909,6.0716c3.7432,3.7181,8.1559,6.2898,13.238,7.7152
			c2.3816,0.8549,4.7576,1.7225,7.0905,2.7041c-2.3888-1.0081-4.7776-2.0162-7.1664-3.0243
			c3.1763,1.3623,6.2327,2.953,8.9874,5.0548c-2.0239-1.5637-4.0478-3.1273-6.0716-4.6909c1.746,1.3788,3.2871,2.9306,4.6691,4.6739
			c-1.5636-2.0239-3.1273-4.0478-4.6909-6.0716c2.9353,3.8258,4.9514,8.2017,6.8234,12.6187
			c-1.0081-2.3888-2.0162-4.7776-3.0242-7.1664c9.9649,23.6412,19.8987,47.2924,30.1086,70.8294
			c9.296,21.4301,18.7461,42.7933,28.3492,64.0876c5.3993,11.9727,10.8478,23.9232,16.3431,35.8521
			c15.7058-12.1183,31.4115-24.2365,47.1173-36.3548c-15.314-18.3778-34.6118-32.7651-51.3541-49.7341
			c-4.6752-4.7385-9.1366-9.6876-13.2219-14.9461c1.5636,2.0239,3.1273,4.0478,4.6909,6.0716
			c-6.3238-8.1974-11.3625-17.0957-15.4114-26.6172c1.0081,2.3888,2.0162,4.7776,3.0242,7.1664
			c-7.8548-18.6176-13.177-38.3847-23.3608-55.9725c-5.3835-9.2976-12.0105-17.832-18.7087-26.2034
			c-5.2479-6.5589-10.8235-12.8454-16.3884-19.1344c-6.3096-7.1306-12.61-14.2775-18.4347-21.8147
			c1.5636,2.0239,3.1273,4.0477,4.6909,6.0716c-3.1235-4.0605-6.6468-8.261-8.7368-12.9708
			c1.0081,2.3888,2.0162,4.7776,3.0242,7.1664c-0.4157-1.0111-0.7338-2.0167-0.9193-3.0952
			c0.3572,2.6584,0.7144,5.3168,1.0716,7.9752c-0.0909-0.7359-0.1076-1.4386-0.0312-2.1753
			c-0.3572,2.6584-0.7144,5.3168-1.0716,7.9752c0.0991-0.5813,0.2479-1.1125,0.4675-1.6599
			c-1.0081,2.3888-2.0162,4.7776-3.0242,7.1664c0.1885-0.3844,0.3865-0.7334,0.6272-1.0869
			c-1.5636,2.0239-3.1273,4.0478-4.6909,6.0716c0.3594-0.4642,0.747-0.8577,1.2068-1.2212
			c-2.0239,1.5636-4.0478,3.1273-6.0716,4.6909c0.3735-0.2613,0.7519-0.4801,1.1636-0.6757
			c-2.3888,1.0081-4.7776,2.0162-7.1664,3.0242c0.6474-0.2673,1.2963-0.4423,1.988-0.5545
			c-2.6584,0.3572-5.3168,0.7144-7.9752,1.0716c0.9762-0.1179,1.9314-0.0994,2.9064,0.0213
			c-2.6584-0.3572-5.3168-0.7144-7.9752-1.0716c1.1301,0.1748,2.2126,0.4754,3.2756,0.8951
			c-2.3888-1.0081-4.7776-2.0162-7.1664-3.0242c1.7928,0.7641,3.3529,1.8876,4.8933,3.0677
			c-2.0239-1.5636-4.0478-3.1273-6.0716-4.6909c7.2978,5.6555,13.376,11.0393,22.5907,13.3855
			c0.3941,0.1003,0.7924,0.1746,1.1928,0.2444c2.7731,0.4839,5.9552,0.9574,8.7623,1.1687
			c0.9131,0.0687,1.7949,0.0435,2.7052-0.0457c3.248-0.3181,6.6819-0.6,9.862-1.4379c3.1264-0.8238,6.9013-2.6935,9.3831-3.7837
			c1.6341-0.7178,3.1697-1.5929,4.6379-2.6079c3.5268-2.438,6.9148-5.1078,10.1719-7.8983c2.998-2.5685,5.7448-5.437,8.8145-7.9197
			c-2.0239,1.5636-4.0477,3.1273-6.0716,4.6909c0.7268-0.5569,1.4669-1.039,2.2992-1.4252
			c-2.3888,1.0081-4.7776,2.0162-7.1664,3.0243c0.5677-0.2213,1.1155-0.3718,1.718-0.4639
			c-2.6584,0.3572-5.3168,0.7144-7.9752,1.0716c0.4404-0.0342,0.8457-0.0366,1.2863-0.0072
			c-2.6584-0.3572-5.3168-0.7144-7.9752-1.0716c0.7207,0.0975,1.3828,0.2781,2.0596,0.54
			c-2.3888-1.0081-4.7776-2.0162-7.1664-3.0243c1.1103,0.4929,2.1016,1.138,3.0639,1.8756
			c-2.0239-1.5636-4.0477-3.1273-6.0716-4.6909c3.5848,2.8706,6.7955,6.1713,10.4243,9.0066
			c5.5516,4.3376,11.0649,8.6229,17.1213,12.2296c3.9693,2.3638,8.088,4.4764,12.3216,6.3255
			c6.4681,2.8251,12.9638,5.6042,19.7312,7.6348c4.4245,1.3275,8.9321,2.3789,13.4882,3.1409
			c7.0186,1.1739,14.1552,2.164,21.2793,2.4572c2.3454,0.0965,4.6992,0.1282,7.0458,0.0535
			c1.8434-0.0587,3.5952-0.3748,5.454-0.6245c1.845-0.2479,3.6387-0.341,5.3997-0.8639c1.1944-0.504,2.3888-1.0081,3.5832-1.5121
			c1.3551-0.5388,2.6965-1.109,4.0243-1.7106c0.1457-0.0837,0.2868-0.1848,0.4333-0.2649c2.4955-1.3651,4.7473-3.3172,6.7885-5.3285
			c1.9432-1.9148,3.7488-4.2732,5.1419-6.7024c0.1063-0.1853,0.1773-0.3723,0.2681-0.5628
			c0.8792-1.8435,2.5841-5.5202,3.1299-7.4644c0.4462-1.5897,0.5365-3.3791,0.7459-4.9379
			c0.2012-1.4974,0.6304-3.4885,0.5945-5.1797c-0.0619-2.9193-0.6976-5.9841-1.1346-8.8615
			c-0.0644-0.424-0.1275-0.8452-0.2227-1.2637c-0.2072-0.9105-0.524-1.776-0.8733-2.6397
			c-2.5429-6.2885-5.2663-11.9803-9.1846-17.4777c-3.8207-5.3606-7.8933-10.6687-12.4769-15.4175
			c-2.9792-3.0866-6.1892-5.9404-9.5677-8.5823c-5.2092-4.0735-10.3798-8.1156-16.0425-11.5354
			c-3.7265-2.2505-7.5889-4.2746-11.5499-6.08c-6.0538-2.7594-12.2224-5.3814-18.5284-7.5251
			c-11.5078-3.912-23.3742-5.7247-35.3973-7.2708c-21.5819-2.7754-43.4144-1.4995-65.0049,0.4868
			c-2.6484,0.2437-5.2958,0.4987-7.9427,0.7582c-4.1304-0.1558-7.9832,0.7054-11.5584,2.5838
			c-3.7192,1.2099-6.9375,3.2775-9.6548,6.203c-2.9255,2.7173-4.9932,5.9356-6.203,9.6548
			c-1.8783,3.5752-2.7396,7.428-2.5838,11.5584c0.3572,2.6584,0.7144,5.3168,1.0716,7.9752
			c1.4254,5.0821,3.9971,9.4948,7.7152,13.238c2.0239,1.5636,4.0478,3.1273,6.0716,4.6909
			C93.2311,183.3772,98.2783,184.7425,103.6935,184.7593L103.6935,184.7593z"/>
	</g>
</g>
<g>
	<g>
		<path d="M307.3578,168.294c1.4598-8.9346,2.9979-17.9545,6.4868-26.3607c-1.0081,2.3888-2.0162,4.7776-3.0243,7.1664
			c1.5613-3.6862,3.4932-7.1814,5.9153-10.3741c-1.5637,2.0239-3.1273,4.0478-4.6909,6.0716
			c2.4864-3.2076,5.4069-6.0092,8.6106-8.4931c-2.0239,1.5636-4.0477,3.1273-6.0716,4.6909
			c5.0119-3.8268,10.5811-6.8824,16.3753-9.3489c-2.3888,1.0081-4.7776,2.0162-7.1664,3.0242
			c7.1191-2.9886,14.5959-5.0059,22.244-6.0542c-2.6584,0.3572-5.3168,0.7144-7.9752,1.0716
			c7.7948-1.0308,15.6832-1.0461,23.4796-0.0229c-2.6584-0.3572-5.3168-0.7144-7.9752-1.0716
			c7.3565,1.0017,14.5625,2.9158,21.4104,5.792c-2.3888-1.0081-4.7776-2.0162-7.1664-3.0242
			c4.8617,2.074,9.4928,4.641,13.6833,7.8737c-2.0239-1.5636-4.0478-3.1273-6.0717-4.6909
			c2.9377,2.3052,5.6107,4.9068,7.9057,7.8563c-1.5636-2.0239-3.1273-4.0477-4.6909-6.0716
			c2.0032,2.6306,3.6745,5.4715,4.9695,8.5148c-1.0081-2.3888-2.0162-4.7776-3.0243-7.1664
			c1.0947,2.656,1.8775,5.4052,2.2966,8.2486c-0.3572-2.6584-0.7144-5.3168-1.0716-7.9752
			c0.3081,2.3003,0.3693,4.6048,0.1587,6.9165c-0.1558,4.1304,0.7054,7.9832,2.5838,11.5584
			c1.2099,3.7192,3.2776,6.9375,6.203,9.6548c2.7173,2.9255,5.9356,4.9932,9.6548,6.203c3.5752,1.8783,7.428,2.7396,11.5584,2.5838
			c2.6584-0.3572,5.3168-0.7144,7.9752-1.0716c5.0822-1.4254,9.4948-3.9971,13.238-7.7152
			c1.5636-2.0239,3.1273-4.0477,4.6909-6.0716c2.7137-4.6791,4.079-9.7263,4.0959-15.1416c0.136-1.4931,0.1726-2.9889,0.0843-4.4862
			c-0.2452-4.1603-0.8208-8.3324-1.6639-12.4125c-0.3033-1.468-0.7123-2.9135-1.2095-4.3274
			c-1.3575-3.86-2.9602-7.6618-4.7916-11.3227c-2.4835-4.9644-6.1341-9.42-9.6615-13.6267
			c-2.0461-2.4402-4.3802-4.6011-6.8751-6.5737c-4.4227-3.4969-8.7781-6.9782-13.7345-9.6728
			c-4.9551-2.6939-10.2642-4.8328-15.5082-6.8541c-6.0158-2.3188-12.2917-3.8954-18.6724-4.7973
			c-8.922-1.2611-17.6375-2.3256-26.6431-1.6521c-8.8301,0.6604-17.8282,1.9072-26.3495,4.4218
			c-3.0931,0.9127-6.1219,2.0101-9.0978,3.2508c-5.2499,2.1886-10.504,4.3034-15.4668,7.0896
			c-2.8109,1.5781-5.5064,3.3358-8.0749,5.2835c-4.4672,3.3875-9.078,6.7085-12.8182,10.9266
			c-3.9034,4.4021-7.6715,9.1915-10.4465,14.4187c-2.7881,5.2519-5.0809,10.848-6.9113,16.505
			c-2.2419,6.9287-3.4518,14.1359-4.6234,21.3065c-1.2502,3.9876-1.4288,7.9752-0.5358,11.9628
			c0.1811,3.9925,1.3678,7.7105,3.5601,11.154c1.8852,3.496,4.4608,6.3017,7.7267,8.4171
			c2.8975,2.6516,6.2982,4.4415,10.2022,5.3697c2.6584,0.3572,5.3168,0.7144,7.9752,1.0716
			c5.4152-0.0168,10.4624-1.3821,15.1416-4.0959c2.0239-1.5636,4.0477-3.1273,6.0716-4.6909
			C303.3607,177.7888,305.9324,173.3761,307.3578,168.294L307.3578,168.294z"/>
	</g>
</g>
<g>
	<g>
		<path d="M385.3818,111.9357c0.0387-0.0965,0.0773-0.1931,0.116-0.2896c-1.0081,2.3888-2.0162,4.7776-3.0243,7.1664
			c0.1767-0.367,0.3762-0.6943,0.6229-1.0183c-1.5636,2.0239-3.1273,4.0478-4.6909,6.0716c0.2609-0.3001,0.5352-0.5609,0.8458-0.809
			c-2.0239,1.5636-4.0477,3.1273-6.0716,4.6909c0.4153-0.2959,0.8428-0.5361,1.306-0.7476
			c-2.3888,1.0081-4.7776,2.0162-7.1664,3.0243c0.903-0.3688,1.8327-0.5884,2.7964-0.7261
			c-2.6584,0.3572-5.3168,0.7144-7.9752,1.0716c3.2262-0.3853,6.5742,0.0646,9.776,0.4898
			c-2.6584-0.3572-5.3168-0.7144-7.9752-1.0716c7.0206,0.9701,13.8676,2.8716,20.3991,5.6197
			c-2.3888-1.0081-4.7776-2.0162-7.1664-3.0243c6.3951,2.7287,12.4159,6.2412,17.9275,10.4805
			c-2.0239-1.5636-4.0477-3.1273-6.0716-4.6909c5.2549,4.0848,9.9635,8.7959,14.058,14.0427
			c-1.5636-2.0239-3.1273-4.0477-4.6909-6.0716c4.3846,5.6771,8.0076,11.8903,10.8167,18.4896
			c-1.0081-2.3888-2.0162-4.7776-3.0243-7.1664c2.8304,6.7398,4.7836,13.8068,5.782,21.0493
			c-0.3572-2.6584-0.7144-5.3168-1.0717-7.9752c0.6655,5.0144,0.9496,10.0987,0.276,15.1275
			c0.3572-2.6584,0.7144-5.3168,1.0716-7.9752c-0.6436,4.3739-2.041,8.5504-3.7476,12.6157
			c1.0081-2.3888,2.0162-4.7776,3.0242-7.1664c-1.374,3.2271-2.8969,6.3913-4.4403,9.5402
			c-1.4157,2.8886-2.9342,5.7289-4.899,8.2868c1.5636-2.0239,3.1273-4.0477,4.6909-6.0716
			c-0.9307,1.174-1.9402,2.2573-3.0695,3.2428c-2.9255,2.7173-4.9932,5.9356-6.203,9.6548
			c-1.8783,3.5752-2.7396,7.428-2.5838,11.5584c-0.1558,4.1304,0.7054,7.9832,2.5838,11.5584
			c1.2099,3.7192,3.2776,6.9375,6.203,9.6548c2.0239,1.5636,4.0478,3.1273,6.0716,4.6909c4.6791,2.7138,9.7263,4.079,15.1416,4.0959
			c2.6584-0.3572,5.3168-0.7144,7.9752-1.0716c5.0822-1.4254,9.4948-3.9971,13.238-7.7152
			c1.1319-0.9877,2.1308-2.0717,3.0695-3.2428c2.433-3.0354,4.9749-6.0928,6.9793-9.4495c1.5389-2.5773,2.8124-5.3055,4.108-8.0099
			c2.4673-5.1501,4.7545-10.3964,6.826-15.7172c1.1797-3.0302,2.1541-6.1502,2.7086-9.3588
			c1.0063-5.8236,1.8582-11.7635,1.5839-17.6908c-0.2625-5.6709-1.1144-11.3525-2.042-16.9377
			c-0.9521-5.7328-2.5205-11.3619-4.6529-16.7675c-3.0384-7.7025-6.2867-15.3202-10.8406-22.2587
			c-2.8792-4.3869-6.1747-8.5497-9.4646-12.6157c-1.8691-2.3102-3.8664-4.5176-5.9841-6.6024
			c-2.036-2.0044-4.1818-3.8967-6.4239-5.6675c-4.2385-3.3475-8.49-6.7517-13.0717-9.6342
			c-7.0133-4.4122-14.7806-7.7273-22.5347-10.5618c-8.5911-3.1405-17.5297-4.4528-26.602-5.4409
			c-5.7192-0.6229-10.4996-0.1403-16.3784,0.9303c-0.6359,0.1158-1.2485,0.2902-1.8563,0.5073
			c-2.9217,1.0436-5.9881,2.121-8.6394,3.8034c-5.2133,3.308-6.1785,4.4733-9.3835,8.6217
			c-3.5953,4.6535-3.4069,4.7608-6.1086,11.5102c-1.2502,3.9876-1.4289,7.9752-0.5358,11.9628
			c0.1811,3.9925,1.3678,7.7105,3.5601,11.154c1.8852,3.4961,4.4608,6.3018,7.7267,8.4171
			c2.8975,2.6516,6.2982,4.4415,10.2022,5.3697c2.6584,0.3572,5.3168,0.7144,7.9752,1.0716
			c5.4152-0.0168,10.4624-1.3821,15.1416-4.0959c2.0239-1.5636,4.0477-3.1273,6.0716-4.6909
			C381.3847,121.4305,383.9564,117.0178,385.3818,111.9357L385.3818,111.9357z"/>
	</g>
</g>
</svg>
