<?xml version="1.0" encoding="utf-8"?>
<!-- Generator: Adobe Illustrator 28.1.0, SVG Export Plug-In . SVG Version: 6.00 Build 0)  -->
<svg version="1.1" id="Layer_1" xmlns="http://www.w3.org/2000/svg" xmlns:xlink="http://www.w3.org/1999/xlink" x="0px" y="0px"
	 viewBox="0 0 512 512" style="enable-background:new 0 0 512 512;" xml:space="preserve">
<g>
	<g>
		<path d="M146.7092,131.9934c3.2173,0,3.2226-5,0-5C143.492,126.9934,143.4867,131.9934,146.7092,131.9934L146.7092,131.9934z"/>
	</g>
</g>
<g>
	<g>
		<path d="M363.0088,135.0771c3.2173,0,3.2226-5,0-5C359.7915,130.0771,359.7862,135.0771,363.0088,135.0771L363.0088,135.0771z"/>
	</g>
</g>
<g>
	<g>
		<path d="M76.7802,244.2955c4.9519,12.8092,12.8154,24.0565,21.5079,34.5916c8.0638,9.7731,16.7768,19.042,26.2939,27.4161
			c18.6335,16.3956,40.7604,29.635,65.4575,34.0552c14.8639,2.6602,30.039,2.2622,44.9883,0.5717
			c14.3867-1.6268,28.7173-4.1315,42.7077-7.8817c13.7423-3.6837,27.1657-8.6462,39.825-15.1605
			c12.0073-6.1787,23.265-13.709,33.8384-22.0929c10.4319-8.2716,20.3152-17.3841,29.264-27.2466
			c8.705-9.5938,16.4429-20.1946,21.3188-32.268c1.2009-2.9736,2.1946-6.0206,2.9871-9.1277
			c0.7956-3.1193-4.0255-4.45-4.8214-1.3292c-3.0863,12.101-9.5506,22.9851-17.3708,32.6234
			c-8.1418,10.0346-17.5524,19.1217-27.3327,27.5443c-20.3848,17.5547-43.5857,31.2309-69.2772,39.3844
			c-13.3229,4.2282-27.0363,7.1485-40.8536,9.203c-14.2707,2.1219-28.7983,3.4366-43.2202,2.3116
			c-24.9567-1.9468-47.8177-12.9343-67.1919-28.4271c-9.5111-7.6056-18.2435-16.1577-26.3377-25.2472
			c-8.6578-9.7223-16.9521-20.019-23.016-31.5936c-1.4735-2.8125-2.8007-5.6945-3.9456-8.6562
			c-0.4866-1.2586-1.6801-2.1295-3.0753-1.7461C77.3236,241.5507,76.2907,243.0292,76.7802,244.2955L76.7802,244.2955z"/>
	</g>
</g>
<g>
	<g>
		<path d="M158.0752,139.1522c-2.2752,3.2454-4.278,6.6718-5.9896,10.2468c-0.5638,1.1775-0.3637,2.7545,0.8969,3.4205
			c1.116,0.5897,2.8176,0.3624,3.4205-0.8969c1.7115-3.5749,3.7144-7.0013,5.9896-10.2468c0.753-1.0741,0.2296-2.8253-0.8969-3.4205
			C160.215,137.5786,158.8788,138.0059,158.0752,139.1522L158.0752,139.1522z"/>
	</g>
</g>
<g>
	<g>
		<path d="M349.2847,141.8339c1.7956,3.0641,3.5912,6.1281,5.3869,9.1922c0.6613,1.1285,2.2847,1.6291,3.4205,0.8969
			c1.137-0.7331,1.6045-2.213,0.8969-3.4205c-1.7956-3.0641-3.5912-6.1281-5.3869-9.1922
			c-0.6613-1.1285-2.2847-1.6291-3.4205-0.8969C349.0445,139.1465,348.5771,140.6263,349.2847,141.8339L349.2847,141.8339z"/>
	</g>
</g>
<g>
	<g>
		<path d="M157.388,327.8134c-5.4631,11.326-16.7158,17.8358-27.6091,23.0951c-11.6152,5.6078-25.0278,10.473-32.3898,21.7606
			c-3.4844,5.3423-5.438,11.5507-7.1965,17.6293c-1.9549,6.7575-3.9795,13.6562-4.1444,20.7413
			c-0.1513,6.5026,1.6287,12.7947,5.2552,18.1984c3.4051,5.0737,7.9194,9.1927,12.7629,12.8608
			c10.1836,7.7124,22.1066,13.8321,34.7489,16.1403c13.6281,2.4882,27.1118-0.1352,39.9364-4.9358
			c12.3069-4.6068,24.3406-10.3622,35.5727-17.187c10.8323-6.5818,21.05-14.3956,29.6815-23.7104
			c8.4748-9.1455,15.394-19.7021,20.0173-31.2964c2.2102-5.5427,3.8421-11.3192,4.7677-17.2163
			c1.0022-6.3851,1.4017-12.9456,0.188-19.3314c-0.5945-3.1276-1.6757-6.1559-3.2256-8.9384
			c-1.5661-2.8115-5.8863-0.2929-4.3174,2.5236c2.9729,5.3369,3.5248,11.5306,3.2286,17.532
			c-0.2878,5.8306-1.368,11.5977-3.047,17.1847c-3.3279,11.0737-9.0746,21.428-16.3168,30.4191
			c-15.4537,19.1856-37.1305,32.0954-59.4617,41.7829c-11.9373,5.1785-24.7063,9.652-37.8962,9.1907
			c-12.1708-0.4257-23.8233-5.0618-34.0538-11.455c-9.3466-5.8409-19.6869-13.7138-22.2446-25.0634
			c-1.4568-6.4643-0.1273-13.1914,1.5181-19.4835c1.5416-5.8954,3.0988-11.9889,5.5893-17.5672
			c2.428-5.4382,5.9099-10.0038,10.7706-13.4867c5.2622-3.7706,11.2155-6.5155,17.0511-9.2619
			c11.076-5.2127,22.7536-10.6457,30.5641-20.4572c1.7725-2.2266,3.3297-4.5786,4.5675-7.1447
			c0.5863-1.2155,0.333-2.7011-0.8969-3.4205C159.7137,326.2762,157.977,326.5921,157.388,327.8134L157.388,327.8134z"/>
	</g>
</g>
<g>
	<g>
		<path d="M199.7579,340.955c0.4086,23.0135-7.1903,45.8083-20.9455,64.2269c-3.8658,5.1764-8.2791,9.9497-13.0647,14.2859
			c-2.3896,2.1653,1.1549,5.6927,3.5355,3.5355c17.7334-16.0686,29.7984-38.2809,33.8818-61.8439
			c1.156-6.6707,1.713-13.4346,1.5928-20.2045C204.7008,337.7412,199.7006,337.731,199.7579,340.955L199.7579,340.955z"/>
	</g>
</g>
<g>
	<g>
		<path d="M143.6654,143.4174c-9.4756,1.0813-20.4075,1.6035-28.2827-4.784c-3.281-2.6612-5.5884-6.3182-6.1379-10.5509
			c-0.5534-4.2636,0.4837-8.7163,2.3762-12.5347c1.9959-4.027,4.9482-7.8551,8.7872-10.2724
			c4.1937-2.6407,9.1803-3.1082,14.0198-3.288c5.5962-0.2078,11.2051-0.1164,16.7919,0.267
			c4.6228,0.3172,9.9246,0.4798,13.7922,3.3702c6.212,4.6425,6.5673,14.4575,3.1531,20.9546
			c-1.4955,2.8459,2.8183,5.3762,4.3174,2.5236c4.0751-7.7548,3.9206-18.0716-1.8433-24.967
			c-3.396-4.0627-8.3984-5.6743-13.489-6.3351c-6.1425-0.7973-12.4136-0.9782-18.6017-0.9113
			c-5.6835,0.0615-11.7464,0.1115-17.09,2.2825c-5.2128,2.1178-9.3303,6.0762-12.3792,10.7478
			c-5.7382,8.7924-7.1474,20.6607-0.2479,29.2168c8.3358,10.3373,22.7661,10.6579,34.8339,9.2807c1.3413-0.1531,2.5-1.0394,2.5-2.5
			C146.1654,144.6848,145.0157,143.2633,143.6654,143.4174L143.6654,143.4174z"/>
	</g>
</g>
<g>
	<g>
		<path d="M345.3698,127.0433c3.4514-8.0425,9.9688-14.5629,18.0543-17.957c8.3021-3.4851,17.9294-3.2072,26.0999,0.544
			c8.3965,3.855,14.8397,10.8701,17.657,19.7065c1.4158,4.4407,1.9296,9.0861,1.5122,13.7296
			c-0.3761,4.1849-1.4795,9.4457-4.5778,12.5075c-1.9553,1.9322-4.8034,2.365-7.4101,2.7708
			c-3.1398,0.4888-6.305,0.9283-9.4902,0.8822c-5.0266-0.0728-10.4818-1.7479-13.011-6.4419
			c-1.5269-2.8337-5.8452-0.3119-4.3174,2.5236c2.6042,4.8332,7.811,7.7239,13.1156,8.5502
			c3.2255,0.5024,6.451,0.4208,9.6852,0.0499c3.0125-0.3455,6.156-0.6652,9.08-1.4998c2.9865-0.8524,5.4481-2.4947,7.3054-4.9827
			c1.6641-2.229,2.6887-4.9255,3.4261-7.5888c1.4406-5.2028,1.6434-10.6386,0.8589-15.9629
			c-1.5727-10.6739-7.7315-20.2703-16.8065-26.0993c-8.8452-5.6814-20.0815-7.6542-30.2694-4.9227
			c-11.0543,2.9638-20.7068,11.1279-25.2296,21.6673c-0.532,1.2397-0.3689,2.6801,0.8969,3.4205
			C343.0025,128.5561,344.8345,128.2908,345.3698,127.0433L345.3698,127.0433z"/>
	</g>
</g>
<g>
	<g>
		<path d="M339.7463,145.1916c3.961,10.4676,7.7874,20.9855,11.4782,31.5514c0.4451,1.2741,1.7106,2.1211,3.0753,1.7461
			c1.2366-0.3398,2.1934-1.7948,1.7461-3.0753c-3.6908-10.5659-7.5172-21.0838-11.4781-31.5514
			c-0.4776-1.2621-1.6867-2.1277-3.0753-1.7461C340.2823,142.4489,339.2659,143.9222,339.7463,145.1916L339.7463,145.1916z"/>
	</g>
</g>
<g>
	<g>
		<path d="M166.8348,144.7064c-2.4863,9.2458-5.4558,18.3531-8.8972,27.2875c-0.4854,1.2603,0.5359,2.7428,1.7461,3.0753
			c1.4111,0.3877,2.5881-0.4812,3.0753-1.7461c3.4415-8.9344,6.4109-18.0417,8.8972-27.2875
			C172.4928,142.9246,167.6709,141.5974,166.8348,144.7064L166.8348,144.7064z"/>
	</g>
</g>
<g>
	<g>
		<path d="M200.454,218.1059c-2.927,3.6261-6.0297,7.5076-6.8106,12.2422c-0.6327,3.8364,0.4624,8.1783,3.4158,10.851
			c1.6337,1.4784,3.6094,2.2591,5.8075,2.3566c1.8876,0.0837,4.0969-0.6643,5.7612,0.3942c1.301,0.8275,2.187,2.3576,2.9843,3.6874
			c1.0004,1.6686,1.9573,3.3508,3.2282,4.8356c4.7128,5.5061,13.1459,7.342,19.9176,5.1267
			c1.7313-0.5664,3.3938-1.3695,4.8598-2.4534c1.6268-1.2027,2.8719-2.6929,4.2447-4.161c1.1041-1.1808,2.2574-2.3562,3.9878-1.9947
			c2.4106,0.5035,4.6692,1.6071,7.1053,2.0928c5.1775,1.0324,10.973,0.8431,15.4454-2.2785c3.92-2.736,6.8462-7.297,6.2883-12.2286
			c-0.1518-1.3415-1.0404-2.5-2.5-2.5c-1.2336,0-2.6528,1.1496-2.5,2.5c0.374,3.3061-1.3762,6.3107-4.1153,8.1174
			c-3.3151,2.1866-7.4937,2.3252-11.2892,1.5683c-4.2232-0.8421-8.517-3.662-12.75-1.4382
			c-3.0813,1.6188-4.6898,5.027-7.5999,6.7898c-4.7812,2.8962-11.5248,2.4874-15.895-1.0393
			c-2.5056-2.022-3.6286-5.0413-5.4978-7.5986c-1.0643-1.456-2.2996-2.8241-3.9377-3.6444
			c-2.0678-1.0355-4.1746-0.9294-6.4146-0.8041c-1.8002,0.1007-3.1252-0.141-4.2474-1.5308
			c-0.8905-1.1028-1.4202-2.6391-1.4886-4.0374c-0.2091-4.2756,2.9617-8.1287,5.5357-11.3176c0.8473-1.0497,1.026-2.5095,0-3.5355
			C203.1129,217.2292,201.3064,217.0499,200.454,218.1059L200.454,218.1059z"/>
	</g>
</g>
<g>
	<g>
		<path d="M110.5042,93.2888c3.8131-6.5826,10.4409-11.1922,17.9325-12.512c7.6898-1.3547,15.9427,1.3324,21.5941,6.6383
			c2.3446,2.2012,5.8874-1.3275,3.5355-3.5355c-5.4066-5.076-12.5225-8.0613-19.9324-8.3891
			c-7.0747-0.3129-14.0743,2.0821-19.653,6.3939c-3.1479,2.4329-5.798,5.4351-7.7941,8.8809
			C104.5709,93.5548,108.8902,96.0751,110.5042,93.2888L110.5042,93.2888z"/>
	</g>
</g>
<g>
	<g>
		<path d="M355.2816,94.3383c7.5953-12.6853,27.1852-18.0842,38.8426-7.6367c3.0815,2.7616,5.3056,6.4203,5.372,10.6426
			c0.0506,3.2143,5.0507,3.224,5,0c-0.1514-9.6266-8.1081-17.1578-16.8694-19.8562c-8.599-2.6485-18.3065-1.0284-25.932,3.6061
			c-4.3758,2.6594-8.0978,6.3236-10.7306,10.7207C349.3072,94.5822,353.6285,97.0992,355.2816,94.3383L355.2816,94.3383z"/>
	</g>
</g>
<g>
	<g>
		<path d="M106.6213,115.542c-8.3689,0.6038-16.7377,1.2075-25.1066,1.8112c-1.3468,0.0972-2.5,1.0795-2.5,2.5
			c0,1.2777,1.146,2.5977,2.5,2.5c8.3689-0.6037,16.7377-1.2075,25.1066-1.8112c1.3468-0.0972,2.5-1.0795,2.5-2.5
			C109.1213,116.7643,107.9753,115.4443,106.6213,115.542L106.6213,115.542z"/>
	</g>
</g>
<g>
	<g>
		<path d="M103.4721,127.1519c-5.4336,3.7332-10.4366,8.0706-14.8444,12.9747c-0.874,0.9724-1.0311,2.589,0,3.5355
			c0.9542,0.8759,2.6019,1.0387,3.5355,0c2.1026-2.3393,4.3352-4.5589,6.6962-6.6376c2.47-2.1747,4.4478-3.7081,7.1363-5.5552
			c1.0758-0.7391,1.6654-2.2284,0.8969-3.4205C106.2026,126.9787,104.6248,126.3599,103.4721,127.1519L103.4721,127.1519z"/>
	</g>
</g>
<g>
	<g>
		<path d="M411.895,139.1618c12.193,1.2736,24.3859,2.5473,36.5789,3.8209c1.3449,0.1405,2.5-1.2496,2.5-2.5
			c0-1.4686-1.1513-2.3591-2.5-2.5c-12.193-1.2736-24.386-2.5473-36.5789-3.8209c-1.3449-0.1405-2.5,1.2496-2.5,2.5
			C409.395,138.1304,410.5462,139.0209,411.895,139.1618L411.895,139.1618z"/>
	</g>
</g>
<g>
	<g>
		<path d="M407.5157,155.0718c7.3888,4.7798,14.3033,10.219,20.6956,16.2669c2.3367,2.2108,5.8788-1.3185,3.5355-3.5355
			c-6.6929-6.3323-13.9715-12.0444-21.7076-17.0488c-1.134-0.7336-2.7608-0.2309-3.4205,0.8969
			C405.9095,152.8641,406.379,154.3365,407.5157,155.0718L407.5157,155.0718z"/>
	</g>
</g>
<g>
	<g>
		<path d="M73.444,251.4193c0.3189-0.7083,0.695-1.3865,1.1532-2.015c-0.152,0.2085,0.0248-0.035,0.0851-0.1059
			c0.1117-0.1313,0.2239-0.2621,0.3403-0.3892c0.262-0.2862,0.539-0.5584,0.8286-0.8165c0.8981-0.8004,2.1423-1.475,3.3933-1.815
			c0.3434-0.0933,0.6919-0.172,1.0436-0.2273c0.1759-0.0292,0.179-0.0296,0.0093-0.0011c0.0903-0.008,0.1806-0.0159,0.2709-0.0239
			c0.1812-0.0081,0.3618-0.0227,0.5432-0.0276c0.408-0.0111,0.8165,0.0021,1.2231,0.0359c0.0496,0.0041,0.5077,0.0594,0.3434,0.0343
			c-0.2067-0.0315,0.4108,0.0836,0.4719,0.0969c0.3991,0.087,0.7934,0.1952,1.1811,0.3238
			c0.1722,0.0571,0.3436,0.1171,0.5125,0.1836c0.4122,0.1622-0.2466-0.1215,0.1533,0.0687
			c0.6762,0.3216,1.5352,0.8499,1.8927,1.1451c1.0404,0.8589,2.5169,1.0187,3.5355,0c0.8851-0.8851,1.0463-2.6718,0-3.5355
			c-3.419-2.8227-7.9057-4.0279-12.2592-2.959c-3.904,0.9585-7.3884,3.8383-9.0391,7.5042
			c-0.554,1.2303-0.3545,2.6886,0.8969,3.4205C71.0934,252.9419,72.8869,252.6565,73.444,251.4193L73.444,251.4193z"/>
	</g>
</g>
<g>
	<g>
		<path d="M397.1324,230.1224c0.2242-0.1999,0.6628-0.5719,0.7529-0.6397c-0.1214,0.0914,0.2347-0.1649,0.2735-0.1922
			c0.1428-0.1001,0.2872-0.1978,0.4333-0.2931c0.618-0.4033,1.2675-0.778,1.942-1.0795c-0.291,0.13,0.1599-0.057,0.2588-0.0896
			c0.1665-0.055,0.3341-0.0991,0.5036-0.1432c0.3932-0.1025-0.2989-0.0049,0.1036-0.023c0.0503-0.0023,0.5345,0.0165,0.3021-0.0137
			c-0.2702-0.0351,0.3107,0.0953,0.3697,0.1162c-0.2468-0.0874-0.1061-0.0512,0.0483,0.0413
			c0.1371,0.0821,0.2722,0.1658,0.4077,0.2505c0.3562,0.2227-0.0211-0.0381,0.1676,0.1248c1.1482,0.9913,2.188,2.1262,3.183,3.2687
			c1.1013,1.2646,1.8086,2.1858,2.7544,3.555c0.7418,1.0738,2.2265,1.6667,3.4205,0.8969c1.0678-0.6884,1.6918-2.2697,0.8969-3.4205
			c-1.1727-1.6977-2.4414-3.3364-3.8112-4.88c-1.254-1.4131-2.5879-2.8986-4.1884-3.9273
			c-3.8778-2.4923-8.3795,0.2616-11.3538,2.9128c-0.9792,0.8728-0.956,2.658,0,3.5355
			C394.642,231.0818,396.0879,231.0534,397.1324,230.1224L397.1324,230.1224z"/>
	</g>
</g>
<g>
	<g>
		<path d="M270.7365,407.7261c3.5052-1.0108,6.6853-2.743,9.5064-5.0411c0.4669-0.3803,0.7322-1.1919,0.7322-1.7678
			c0-0.6132-0.2723-1.3456-0.7322-1.7678c-0.4764-0.4374-1.102-0.7621-1.7678-0.7322c-0.7,0.0313-1.2268,0.2916-1.7678,0.7322
			c-0.1122,0.0914-0.2252,0.1817-0.3383,0.2721c-0.4136,0.3304,0.4753-0.3494,0.0471-0.0381
			c-0.1951,0.1418-0.3882,0.2861-0.5857,0.4247c-0.4541,0.3186-0.9196,0.6209-1.3952,0.9064
			c-0.9312,0.5591-1.9005,1.0495-2.8985,1.4776c0.1991-0.084,0.3981-0.168,0.5972-0.252c-0.8899,0.3752-1.7988,0.697-2.7267,0.9646
			c-1.2556,0.3621-2.1654,1.7797-1.7461,3.0753C268.0742,407.2564,269.3904,408.1143,270.7365,407.7261L270.7365,407.7261z"/>
	</g>
</g>
<g>
	<g>
		<path d="M217.3267,189.2582c7.947-13.0866,16.0783-27.4575,13.2099-43.3517c-0.7165-3.9702-2.235-7.8284-4.5137-11.1626
			c-0.7609-1.1133-2.1967-1.6126-3.4205-0.8969c-1.1035,0.6454-1.6623,2.3005-0.8969,3.4205
			c4.7466,6.9452,5.3307,15.7719,3.4585,23.7969c-2.1733,9.3154-7.244,17.5839-12.1546,25.6703
			C211.3347,189.4922,215.657,192.0078,217.3267,189.2582L217.3267,189.2582z"/>
	</g>
</g>
<g>
	<g>
		<path d="M78.9223,68.0094c9.1296-7.178,19.9105-12.1978,31.2064-14.8242c11.9679-2.7826,24.2887-2.5635,36.2685,0.0355
			c7.2854,1.5805,14.3867,3.896,21.3488,6.5429c1.3237,0.5033,2.6627-0.5707,3.0753-1.7461
			c0.7951-2.2651,0.7603-4.8149-0.1721-7.0332c-1.5231,0.6421-3.0462,1.2843-4.5694,1.9264c1.1777,2.69,2.7739,5.1131,4.685,7.3389
			c1.2811,1.492,3.66,0.5728,4.1785-1.1032c0.5217-1.6866,1.0435-3.3733,1.5652-5.0599c-1.5231,0.1991-3.0462,0.3981-4.5694,0.5972
			c1.2939,2.8651,2.5878,5.7302,3.8818,8.5954c0.8496,1.8812,3.3403,1.3489,4.3174,0c1.4708-2.0307,2.9417-4.0615,4.4125-6.0922
			c0.7925-1.0942,0.1879-2.786-0.8969-3.4205c-1.2624-0.7384-2.6261-0.1999-3.4205,0.8969
			c-1.4708,2.0307-2.9417,4.0615-4.4125,6.0922c1.4391,0,2.8782,0,4.3174,0c-1.2939-2.8651-2.5878-5.7302-3.8818-8.5954
			c-0.9375-2.0758-3.9875-1.2839-4.5694,0.5972c-0.5217,1.6866-1.0435,3.3733-1.5652,5.0599
			c1.3928-0.3677,2.7856-0.7354,4.1785-1.1032c-1.6277-1.8957-2.9024-4.0409-3.9032-6.327
			c-1.1226-2.5643-5.6693-0.6905-4.5694,1.9264c0.6305,1.5,0.7125,2.8352,0.1721,4.3748c1.0251-0.582,2.0502-1.1641,3.0753-1.7461
			c-12.7411-4.8441-26.1167-8.5712-39.8326-8.794c-12.4318-0.2019-24.8076,2.4802-36.1441,7.5429
			c-6.3496,2.8356-12.2494,6.488-17.7118,10.7827c-1.0623,0.8352-0.8747,2.6608,0,3.5355
			C76.4358,69.0583,77.8573,68.8467,78.9223,68.0094L78.9223,68.0094z"/>
	</g>
</g>
<g>
	<g>
		<path d="M439.5038,63.2296c-13.8058-6.7786-28.7646-11.1569-44.1438-12.1692c-14.4383-0.9504-29.1645,1.2577-42.5359,6.8484
			c-7.4936,3.1331-14.4442,7.2215-20.7733,12.3166c1.1785,0,2.357,0,3.5356,0c-2.1422-2.2261-4.2844-4.4521-6.4266-6.6781
			c-1.4504-1.5071-4.3896-0.4143-4.2678,1.7678c0.1168,2.0924,0.0007,4.1453-0.4297,6.1973
			c1.0251-0.582,2.0502-1.1641,3.0753-1.7461c-2.0877-0.793-4.1755-1.586-6.2633-2.3789c-1.4687-0.5579-3.2668,0.8883-3.1646,2.4107
			c0.1836,2.7346,0.3672,5.4692,0.5508,8.2039c1.2539-0.7196,2.5078-1.4391,3.7618-2.1587
			c-2.2199-1.4599-4.4398-2.9197-6.6598-4.3796c-2.6963-1.7731-5.2039,2.5547-2.5236,4.3174
			c2.2199,1.4599,4.4398,2.9197,6.6598,4.3796c1.5311,1.0069,3.8864-0.302,3.7618-2.1587
			c-0.1836-2.7346-0.3672-5.4692-0.5508-8.2039c-1.0549,0.8036-2.1097,1.6071-3.1646,2.4107
			c2.0878,0.793,4.1755,1.586,6.2633,2.3789c1.2099,0.4596,2.8172-0.5157,3.0753-1.7461c0.5202-2.4802,0.7496-4.9952,0.6083-7.5265
			c-1.4226,0.5893-2.8452,1.1785-4.2678,1.7678c2.1422,2.2261,4.2844,4.4521,6.4266,6.6782c1.0088,1.0483,2.499,0.8344,3.5356,0
			c21.8663-17.6028,51.7595-21.4656,78.4558-14.6905c7.9236,2.0109,15.6024,4.8747,22.9381,8.4766
			c1.2114,0.5948,2.7044,0.3273,3.4205-0.8969C441.0449,65.5488,440.7207,63.8271,439.5038,63.2296L439.5038,63.2296z"/>
	</g>
</g>
<g>
	<g>
		<path d="M208.2441,243.0465c-2.2354,3.8326-4.5163,8.1454-4.2568,12.726c0.222,3.9189,2.1376,8.0216,5.8528,9.7397
			c1.2247,0.5663,2.6933,0.3463,3.4205-0.8969c0.6313-1.0794,0.3343-2.8512-0.8969-3.4205
			c-0.3186-0.1473-0.6163-0.3165-0.9185-0.4939c-0.0805-0.0473-0.3238-0.226-0.1179-0.0652
			c-0.1679-0.1311-0.3247-0.2817-0.4762-0.4314c-0.4635-0.4578-0.6079-0.6427-1.0001-1.3596
			c-0.0843-0.1541-0.1632-0.3106-0.2391-0.469c-0.0714-0.1558-0.0752-0.1591-0.0115-0.01c-0.0312-0.083-0.0625-0.1659-0.0938-0.2489
			c-0.1148-0.3378-0.2242-0.6758-0.3102-1.0224c-0.0362-0.1457-0.1919-0.9424-0.1514-0.6544
			c-0.0557-0.3957-0.072-0.8025-0.0747-1.2014c-0.024-3.5017,1.8828-6.7394,3.5912-9.6684
			C214.1859,242.785,209.8662,240.2653,208.2441,243.0465L208.2441,243.0465z"/>
	</g>
</g>
<g>
	<g>
		<path d="M244.6889,250.4627c0.5211,1.712,1.0972,3.5386,1.3222,5.2655c0.1151,0.8836,0.1577,1.8907,0.0558,2.7416
			c-0.0729,0.6088-0.363,1.6292-0.5303,2.0157c-0.506,1.1687-1.2127,2.0484-2.3337,3.0135
			c-0.0833,0.0717-0.3051,0.2289-0.0936,0.0757c-0.1709,0.1237-0.3463,0.241-0.5246,0.3537
			c-0.2852,0.1802-0.5788,0.3461-0.8806,0.4969c-0.1107,0.0553-0.5237,0.2334-0.2102,0.1082
			c-0.1562,0.0624-0.3156,0.1187-0.4752,0.1719c-0.4014,0.1336-0.81,0.2331-1.2244,0.3162
			c-1.3245,0.2655-2.0856,1.8398-1.7461,3.0753c0.3792,1.3799,1.747,2.0123,3.0753,1.7461
			c3.7748-0.7565,7.2326-3.4952,8.8083-7.0156c2.0112-4.4936,0.9524-9.1803-0.4215-13.6937
			c-0.3931-1.2914-1.7485-2.1107-3.0753-1.7461C245.1563,247.7388,244.2942,249.1661,244.6889,250.4627L244.6889,250.4627z"/>
	</g>
</g>
<g>
	<g>
		<path d="M212.6559,271.241c0.6172-1.3863,1.3389-2.7234,2.1685-3.9944c0.1934-0.2964,0.3925-0.589,0.5969-0.878
			c0.1168-0.1651,0.2354-0.3289,0.3558-0.4914c0.0602-0.0812,0.1208-0.1622,0.1818-0.2428c0.16-0.2096,0.1222-0.1611-0.1133,0.1455
			c0.2494-0.23,0.451-0.5641,0.6703-0.8233c0.2613-0.3088,0.53-0.6111,0.8036-0.9089c-1.1785,0-2.357,0-3.5355,0
			c0.1967,0.2298,0.3751,0.4808,0.5796,0.7029c-0.0682-0.0887-0.1364-0.1774-0.2046-0.2661
			c0.0615,0.0804,0.1225,0.1613,0.1828,0.2425c0.0754,0.1016,0.1498,0.204,0.2234,0.307c0.3384,0.4737,0.657,0.9614,0.955,1.4615
			c0.285,0.4783,0.5509,0.9681,0.7967,1.4677c0.1341,0.2726,0.2601,0.5488,0.3845,0.826c0.1965,0.4379-0.2029-0.5203-0.0159-0.0376
			c0.0549,0.1416,0.1119,0.2823,0.1663,0.4241c0.582-1.0251,1.1641-2.0502,1.7461-3.0753
			c-2.3139,0.7698-4.6278,1.5395-6.9417,2.3093c-1.2385,0.412-2.177,1.7436-1.7461,3.0753
			c0.3992,1.2337,1.7466,2.1881,3.0753,1.7461c2.3139-0.7697,4.6278-1.5395,6.9417-2.3093
			c1.1863-0.3947,2.2513-1.7585,1.7461-3.0753c-1.0384-2.7067-2.4671-5.1302-4.3536-7.3344c-0.8531-0.9967-2.6745-0.9373-3.5355,0
			c-2.2311,2.4288-4.1032,5.1903-5.4453,8.2053c-0.2823,0.6343-0.4439,1.2298-0.252,1.9264
			c0.1597,0.5799,0.6081,1.2083,1.1489,1.4941C210.3239,272.713,212.0881,272.5165,212.6559,271.241L212.6559,271.241z"/>
	</g>
</g>
<g>
	<g>
		<path d="M234.3979,265.1301c2.0281,3.0521,3.951,6.1722,5.7661,9.3557c0.498-1.2242,0.9961-2.4483,1.4941-3.6725
			c-0.351,0.0902-0.7033,0.1733-1.0587,0.2442c-0.1938,0.0387-0.3881,0.0741-0.583,0.1065c-0.0974,0.0165-0.195,0.032-0.2927,0.0464
			c0.0911-0.0117,0.1821-0.0234,0.2732-0.0351c-0.3162,0.1064-0.7499,0.0827-1.0814,0.1053
			c-0.3614,0.0246-0.7235,0.0388-1.0858,0.0421c-0.7263,0.0067-1.4469-0.0401-2.1696-0.1071
			c-0.4923-0.0457,0.2945,0.0532-0.0213,0.0016c-0.195-0.0319-0.3904-0.0605-0.5849-0.0954
			c-0.3565-0.0641-0.7111-0.1386-1.0632-0.2238c-0.2388-0.0577-0.5914-0.2373-0.8343-0.2309
			c0.3786,0.174,0.4537,0.1999,0.2253,0.0775c0.1004,0.0765,0.2008,0.1529,0.3012,0.2294c0.6245,0.6085,0.6339,1.2316,0.3642,1.8619
			c0.2742-0.6407,0.6004-1.2646,0.9362-1.8748c0.3216-0.5843,0.6656-1.1562,1.0307-1.7143c0.1913-0.2923,0.3881-0.581,0.591-0.8654
			c0.1107-0.1552,0.2244-0.3079,0.3369-0.4619c0.3081-0.4217-0.2783,0.3494,0.0738-0.0981c0.4273-0.543,0.7322-1.0467,0.7322-1.7678
			c0-0.6132-0.2724-1.3456-0.7322-1.7678c-0.9004-0.8266-2.6719-1.0976-3.5355,0c-1.1574,1.471-2.216,2.9943-3.0844,4.6554
			c-0.5042,0.9645-1.1996,2.108-1.1865,3.2167c0.0193,1.6273,1.0335,2.7307,2.4888,3.2801
			c1.7128,0.6466,3.7224,0.8394,5.5389,0.8806c1.9274,0.0437,3.8846-0.2044,5.7504-0.684c1.5807-0.4063,2.2809-2.2924,1.4941-3.6725
			c-1.815-3.1834-3.738-6.3035-5.7661-9.3557c-0.7227-1.0876-2.2405-1.6576-3.4205-0.8969
			C234.2102,262.4088,233.6237,263.9651,234.3979,265.1301L234.3979,265.1301z"/>
	</g>
</g>
<g>
	<g>
		<path d="M255.3595,249.1352c-1.3834,1.6678-1.2923,3.8242,0.3239,5.3293c1.764,1.6428,4.2785,1.0744,5.9711-0.3416
			c2.7648-2.3131,4.5844-6.2296,5.263-9.7075c1.4825-7.5988-1.7185-15.144-8.0072-19.5814
			c-1.1038-0.7789-2.7801-0.198-3.4205,0.8969c-0.7316,1.2507-0.2095,2.6398,0.8969,3.4205
			c3.4641,2.4443,5.7654,6.5829,5.9187,10.8285c0.08,2.2175-0.3275,4.4615-1.2577,6.4835c-0.4779,1.0388-1.0765,2.0715-1.7963,2.962
			c-0.2002,0.2478-0.8579,0.7276-0.9335,0.9926c-0.0611,0.2141,0.1272-0.0168,0.2789,0.1187
			c0.2384,0.213,0.9887,0.722,0.7767,1.2292c-0.2143,0.3677-0.4286,0.7354-0.6429,1.1032c0.0548-0.0661,0.1097-0.1322,0.1646-0.1984
			c0.8614-1.0384,1.0171-2.5184,0-3.5355C258.0081,248.2483,256.2256,248.091,255.3595,249.1352L255.3595,249.1352z"/>
	</g>
</g>
<g>
	<g>
		<path d="M125.7792,420.8672c-2.147,2.138-3.3375,5.0613-3.4439,8.0776c-0.1113,3.1559,1.1534,7.8715,4.9328,8.1259
			c1.4326,0.0964,2.9091-0.4891,4.2245-1.0053c1.2764-0.5008,2.5362-1.0563,3.6413-1.8782
			c2.6585-1.9771,4.1487-5.1207,3.0981-8.4259c-1.1873-3.7351-4.4652-5.7667-7.7906-7.4014
			c-1.172-0.5761-2.7589-0.3552-3.4205,0.8969c-0.5951,1.1264-0.3561,2.8045,0.8969,3.4205
			c1.0908,0.5362,2.1855,1.0753,3.2005,1.7477c0.0994,0.0658,0.6914,0.4897,0.347,0.2243c0.2462,0.1897,0.4812,0.3979,0.7055,0.613
			c0.1879,0.1802,0.3505,0.3863,0.5368,0.5664c0.1953,0.1888-0.0176-0.0345-0.0484-0.0767
			c0.1086,0.1481,0.2115,0.2998,0.3089,0.4554c0.0779,0.1243,0.1517,0.2506,0.2216,0.3796
			c0.0337,0.0621,0.2486,0.4712,0.1124,0.1936c-0.1226-0.2498,0.0258,0.0655,0.039,0.1046
			c0.0462,0.1369,0.0928,0.2732,0.1313,0.4125c0.0379,0.137,0.0573,0.2841,0.099,0.4189c-0.0111-0.036-0.0237-0.4262-0.0154-0.1346
			c0.0041,0.1422,0.0188,0.284,0.0185,0.4268c-0.0005,0.2485-0.0335,0.4373,0.0274,0.0829
			c-0.0386,0.2246-0.1025,0.4399-0.1649,0.6582c-0.0312,0.109-0.2187,0.4048-0.0385,0.1221
			c0.179-0.2808,0.0057-0.0284-0.0278,0.0242c-0.112,0.1757-0.2117,0.4718-0.38,0.5993c0.0379-0.0287,0.3814-0.4182,0.0529-0.0919
			c-0.085,0.0843-0.163,0.1757-0.2482,0.26c-0.1732,0.1714-0.3576,0.3286-0.5454,0.4836c0.3867-0.3192,0.0068-0.0197-0.1753,0.0988
			c-0.4294,0.2795-0.8802,0.5243-1.3421,0.7455c-0.1904,0.0912-0.6651,0.2956-0.206,0.106
			c-0.2411,0.0995-0.4839,0.1951-0.7283,0.2863c-0.4799,0.179-0.9654,0.3444-1.4541,0.4978
			c-0.2491,0.0782-0.5121,0.1266-0.7581,0.2093c-0.2887,0.0971,0.0725-0.04,0.1135-0.008c-0.0725,0.0013-0.145,0.0027-0.2175,0.0041
			c0.0805,0.0114,0.1611,0.0227,0.2416,0.034c0.1269,0.084,0.2395,0.1332,0.368,0.2272c0.0657,0.048,0.2511,0.4356-0.0009-0.003
			c-0.09-0.1566-0.4089-0.8368-0.2018-0.3334c-0.1907-0.4636-0.3359-0.9468-0.4418-1.4366
			c-0.0452-0.2092-0.1092-0.7442-0.0576-0.2259c-0.0266-0.2668-0.0491-0.5332-0.0566-0.8013
			c-0.0084-0.3016-0.0019-0.6035,0.0182-0.9046c0.0089-0.1339,0.0256-0.2672,0.0351-0.4009
			c0.0263-0.3672-0.1199,0.5943,0.0116-0.0326c0.1183-0.5645,0.2942-1.0952,0.4542-1.6467
			c0.0779-0.2683-0.0509,0.1013-0.0642,0.1313c0.0676-0.1532,0.1382-0.3047,0.2133-0.4543c0.135-0.269,0.2825-0.5316,0.4436-0.7859
			c0.1048-0.1653,0.5247-0.6945,0.1929-0.3089c0.2198-0.2555,0.4377-0.5043,0.677-0.7426c0.928-0.9241,0.9936-2.6235,0-3.5355
			C128.315,419.9494,126.7694,419.881,125.7792,420.8672L125.7792,420.8672z"/>
	</g>
</g>
<g>
	<g>
		<path d="M132.025,437.0953c1.1718,1.3542,2.3351,2.7162,3.5155,4.0628c0.8323,0.9495,1.95,1.5974,3.2475,1.5693
			c1.0198-0.0221,2.0558-0.3713,2.9361-0.873c1.5881-0.9051,2.7257-2.4028,3.329-4.1088c0.6185-1.749,0.3553-3.6604-0.4246-5.3045
			c-0.8527-1.7976-2.508-3.1299-4.3829-3.7323c-1.2456-0.4002-2.7841,0.4678-3.0753,1.7461
			c-0.3116,1.3678,0.4124,2.6468,1.7461,3.0753c0.6263,0.2013-0.3735-0.218,0.002-0.0188c0.1518,0.0805,0.3038,0.1561,0.4497,0.2474
			c0.0726,0.0455,0.1438,0.0929,0.2138,0.1423c0.2065,0.1512,0.1397,0.0993-0.2004-0.1559
			c0.0999,0.1281,0.2624,0.2322,0.3769,0.3504c0.0598,0.0617,0.1179,0.125,0.1744,0.1897c0.1641,0.1965,0.1147,0.1282-0.1481-0.205
			c0.0831,0.148,0.1988,0.2819,0.2862,0.4287c0.0856,0.1437,0.1447,0.3205,0.2402,0.4556c-0.1634-0.4018-0.1981-0.482-0.1042-0.2408
			c0.0296,0.0804,0.0571,0.1616,0.0823,0.2435c0.0506,0.1646,0.084,0.3311,0.1236,0.4983c0.1,0.4224-0.0419-0.6946-0.0161-0.0269
			c0.005,0.1288,0.0043,0.258-0.0021,0.3867c-0.0332,0.6674,0.1169-0.4467,0.0085-0.0273c-0.043,0.1663-0.0773,0.3327-0.1302,0.4965
			c-0.2017,0.6246,0.2137-0.376,0.0134-0.0009c-0.0811,0.1519-0.1565,0.3049-0.247,0.4517
			c-0.0451,0.0732-0.0921,0.1451-0.1409,0.2158c-0.1497,0.2078-0.0967,0.1423,0.159-0.1964
			c-0.2405,0.2175-0.5092,0.4877-0.7273,0.7278c0.3392-0.2559,0.4049-0.3093,0.1969-0.1602
			c-0.0707,0.0484-0.1426,0.0949-0.2158,0.1394c-0.1427,0.0867-0.3185,0.1458-0.4529,0.2415
			c0.4023-0.1632,0.4825-0.1985,0.2407-0.1058c-0.0808,0.0291-0.1624,0.0556-0.2448,0.0798
			c-0.0415,0.0114-0.0829,0.0229-0.1244,0.0343c-0.2679,0.0574-0.1975,0.0559,0.2112-0.0045
			c-0.1015,0.0107-0.2032,0.0136-0.3051,0.0085c0.2485-0.007,0.4779,0.0554,0.688,0.1873c-0.2206-0.1384-0.169-0.0927,0.1547,0.1372
			c-0.0723-0.0662-0.1414-0.1355-0.2076-0.2078c-1.2907-1.3718-2.4778-2.8583-3.7104-4.2828c-0.8587-0.9924-2.6671-0.946-3.5355,0
			C131.0544,434.617,131.109,436.0368,132.025,437.0953L132.025,437.0953z"/>
	</g>
</g>
<g>
	<g>
		<path d="M137.0679,456.8045c-0.1108,2.4934-0.3308,4.9798-0.6594,7.4539c0.0298-0.2215,0.0595-0.4431,0.0893-0.6646
			c-0.0296,0.2198-0.0606,0.4394-0.0909,0.6591c-0.1227,0.8901-0.0669,1.772,0.6429,2.4324
			c0.3599,0.3349,0.7819,0.6414,1.2095,0.8901c0.6727,0.3912,1.4407,0.7025,2.2076,0.852c1.8393,0.3587,3.6769,0.1524,5.3471-0.7199
			c3.0738-1.6054,4.572-5.4973,3.6484-8.782c-0.3538-1.2583-1.7856-2.1635-3.0753-1.7461
			c-1.2834,0.4153-2.1254,1.7266-1.7461,3.0753c0.0659,0.2344,0.1156,0.4694,0.1509,0.7104
			c-0.0298-0.2216-0.0595-0.4431-0.0893-0.6646c0.0536,0.4439,0.0518,0.8828-0.0011,1.3266
			c0.0298-0.2215,0.0595-0.4431,0.0893-0.6646c-0.0372,0.2608-0.0877,0.5175-0.1597,0.771
			c-0.0388,0.1366-0.0872,0.2691-0.1315,0.4038c-0.1342,0.4078,0.2688-0.5596,0.0635-0.15
			c-0.1089,0.2172-0.2226,0.4303-0.3555,0.6341c-0.0442,0.0676-0.0899,0.1341-0.1371,0.1996
			c0.0816-0.1044,0.1632-0.2087,0.2448-0.3131c-0.057,0.1151-0.1894,0.2264-0.2772,0.3196c-0.083,0.088-0.1689,0.1729-0.2581,0.2546
			c-0.0443,0.0412-0.0895,0.0813-0.1358,0.1203c-0.196,0.1606-0.1226,0.105,0.2203-0.1667c-0.2164,0.1106-0.409,0.2722-0.6287,0.383
			c-0.2478,0.125-0.4333,0.0748,0.1468-0.0526c-0.1174,0.0258-0.2334,0.0844-0.3496,0.1193
			c-0.2763,0.0832-0.558,0.1388-0.8436,0.1784c0.2215-0.0298,0.4431-0.0595,0.6646-0.0893
			c-0.4536,0.0522-0.9026,0.0521-1.3563,0.0006c0.2215,0.0298,0.4431,0.0595,0.6646,0.0893
			c-0.2249-0.0307-0.4473-0.0704-0.6674-0.1266c-0.1593-0.0407-0.4911-0.2289-0.645-0.2092
			c0.0954-0.0122,0.5985,0.2729,0.204,0.0753c-0.0918-0.046-0.1823-0.0943-0.271-0.146c-0.1069-0.0623-0.2086-0.1303-0.3122-0.1978
			c-0.3608-0.2351,0.4686,0.3853,0.1146,0.0895c0.2143,0.8108,0.4286,1.6216,0.6429,2.4323c0.4108-2.9141,0.709-5.837,0.8396-8.7776
			c0.0581-1.3082-1.1914-2.5586-2.5-2.5C138.1637,454.3674,137.1302,455.403,137.0679,456.8045L137.0679,456.8045z"/>
	</g>
</g>
<g>
	<g>
		<path d="M139.9886,463.4041c-2.9813-0.938-6.126,0.2728-8.3083,2.358c-2.2103,2.112-3.806,5.5717-2.9043,8.6376
			c0.7467,2.5389,2.9858,4.4121,5.5012,5.0767c2.8218,0.7456,5.6435-0.0713,7.7928-1.9991c2.3143-2.0759,3.4603-5.273,3.549-8.3237
			c0.0381-1.3083-1.1771-2.5593-2.5-2.5c-1.3871,0.0621-2.4592,1.0982-2.5,2.5c-0.0066,0.228-0.0259,0.4543-0.038,0.6819
			c-0.0235,0.442,0.0117-0.0859,0.0292-0.1531c-0.028,0.1071-0.0351,0.2296-0.0549,0.3398
			c-0.0917,0.5091-0.2225,1.0111-0.3918,1.4999c-0.0376,0.1085-0.0789,0.2154-0.1187,0.3232
			c-0.114,0.3094,0.0801,0.0466,0.0529-0.1221c0.0216,0.1339-0.2371,0.4885-0.3045,0.6123
			c-0.1084,0.1989-0.2248,0.3937-0.3484,0.5835c-0.0616,0.0945-0.127,0.1861-0.1904,0.2794
			c-0.2572,0.3787,0.237-0.2631,0.0316-0.0394c-0.3046,0.3318-0.6093,0.6404-0.9408,0.9455
			c-0.2445,0.2251,0.3913-0.2644,0.1109-0.0861c-0.0935,0.0594-0.1824,0.1267-0.276,0.1865
			c-0.2129,0.136-0.4344,0.2489-0.6568,0.3675c-0.425,0.2266,0.1106-0.0761,0.1316-0.0505
			c-0.002-0.0024-0.2452,0.0869-0.2813,0.0983c-0.1903,0.06-0.3836,0.0974-0.577,0.1442c-0.409,0.0989,0.1747-0.0429,0.2227-0.0257
			c-0.0512-0.0185-0.2288,0.0186-0.2974,0.0218c-0.2505,0.0116-0.4971-0.0052-0.7469-0.015
			c-0.2743-0.0108-0.1167-0.1421,0.2184,0.0343c-0.0635-0.0334-0.2347-0.0424-0.2949-0.0552
			c-0.1955-0.0416-0.3892-0.0928-0.5798-0.1532c-0.0952-0.0302-0.1882-0.0665-0.2832-0.0973
			c-0.2835-0.092,0.008-0.1293,0.1833,0.081c-0.1037-0.1245-0.445-0.2235-0.5906-0.3109c-0.106-0.0636-0.3057-0.2593-0.4294-0.2838
			c0.2842,0.0562,0.3712,0.3172,0.1631,0.1192c-0.0699-0.0666-0.1446-0.128-0.2142-0.195
			c-0.1196-0.1152-0.2516-0.3419-0.3902-0.4218c0.3027,0.1746,0.2715,0.3935,0.1351,0.1631
			c-0.0727-0.1229-0.1529-0.2383-0.221-0.3643c-0.0339-0.0628-0.0828-0.2127-0.1266-0.2542
			c0.046,0.0436,0.1914,0.5818,0.0954,0.1997c-0.0318-0.1263-0.0652-0.4604-0.1422-0.5584
			c0.0426,0.0543,0.0235,0.6367,0.0363,0.2259c0.0042-0.1336-0.0021-0.2852-0.0074-0.4167
			c-0.0042-0.1047,0.0256-0.511-0.0318,0.0438c0.0177-0.1716,0.0631-0.3438,0.1047-0.5105c0.0684-0.2736,0.1646-0.532,0.2553-0.7982
			c0.1189-0.3489-0.1882,0.336-0.0016,0.0188c0.0676-0.115,0.1183-0.2415,0.1815-0.3595c0.1121-0.2092,0.2332-0.4128,0.3635-0.6112
			c0.0656-0.0998,0.1384-0.1951,0.2033-0.2951c0.164-0.2529-0.3119,0.3568-0.0037,0.0091c0.1999-0.2256,0.3996-0.4488,0.6176-0.6575
			c0.0867-0.083,0.1757-0.1642,0.2659-0.2433c0.0609-0.0534,0.473-0.3556,0.1651-0.144c-0.2878,0.1978,0.0373-0.0182,0.1087-0.0665
			c0.1226-0.0828,0.2471-0.1627,0.3745-0.2379c0.1011-0.0597,0.2037-0.1175,0.3077-0.1721
			c0.0774-0.0412,0.1557-0.0804,0.2351-0.1176c0.1698-0.0795,0.1035-0.054-0.1988,0.0766c0.1424-0.1342,0.5491-0.1925,0.7357-0.2402
			c0.11-0.0282,0.2235-0.045,0.3327-0.0745c0.3024-0.0817-0.5452,0.0296-0.0766,0.0099c0.2444-0.0103,0.6199,0.0713,0.8465,0.0093
			c-0.0796,0.0218-0.5805-0.1305-0.1572-0.01c0.1678,0.0478,0.3372,0.0855,0.5042,0.1381c1.2478,0.3926,2.7829-0.4624,3.0753-1.7461
			C142.0447,465.1182,141.3246,463.8245,139.9886,463.4041L139.9886,463.4041z"/>
	</g>
</g>
</svg>
